<svg id="Group_138" data-name="Group 138" xmlns="http://www.w3.org/2000/svg" width="38.067" height="38.067" viewBox="0 0 38.067 38.067">
  <circle id="Ellipse_56" data-name="Ellipse 56" cx="19.034" cy="19.034" r="19.034" transform="translate(0 0)" fill="#fff"/>
  <path id="Union_31" data-name="Union 31" d="M3.835,11.637A6.023,6.023,0,0,1,6.014.005a6.089,6.089,0,0,1,4.017,1.486A21.267,21.267,0,0,1,8.506,3.072a3.964,3.964,0,0,0-4.677-.123,3.856,3.856,0,0,0-.164,6.007c1.829,1.662,5.286.836,5.791-1.707-1.146-.017-2.294,0-3.44-.037,0-.684-.006-1.368,0-2.052,1.915-.006,3.83-.009,5.748.006a6.906,6.906,0,0,1-1.085,4.653A5.63,5.63,0,0,1,6.049,12.04,6.179,6.179,0,0,1,3.835,11.637Zm12.1-2.779c-.006-.572-.006-1.144-.011-1.716L14.21,7.124V5.414c.571-.006,1.142-.009,1.717-.012q0-.862.014-1.718h1.708c0,.572.006,1.147.011,1.718.571.006,1.146.006,1.717.012v1.71l-1.717.014q-.009.863-.011,1.719Z" transform="translate(9.137 13.704)" fill="#f8a22f"/>
</svg>
