<svg xmlns="http://www.w3.org/2000/svg" width="52.999" height="86.491" viewBox="0 0 52.999 86.491">
  <path id="Subtraction_13" data-name="Subtraction 13" d="M26.837,86.491h0L3.385,39.469A26.381,26.381,0,0,1,0,26.5a26.7,26.7,0,0,1,.538-5.341,26.355,26.355,0,0,1,3.987-9.476,26.577,26.577,0,0,1,11.659-9.6A26.366,26.366,0,0,1,21.159.538a26.758,26.758,0,0,1,10.681,0,26.355,26.355,0,0,1,9.476,3.987,26.577,26.577,0,0,1,9.6,11.659,26.366,26.366,0,0,1,1.544,4.974,26.713,26.713,0,0,1-.435,12.481,26.37,26.37,0,0,1-2.744,6.4L26.837,86.49Zm-.262-74.074a15.37,15.37,0,1,0,15.37,15.37A15.387,15.387,0,0,0,26.575,12.417Z" transform="translate(0)" fill="#ed1b24"/>
</svg>
